:SAMPLES-PER-SECOND 30
:FULLY-SPECIFIED
:DEGREES
856
root  -11.3547 28.0296 -10.0425 82.7912 -5.59707 109.002
Spine  -14.1769 -11.0068 10.9245
Spine1  -11.4237 47.303 -1.64148
Neck  3.97569e-016 0 -2.38542e-015
Head  47.0994 -26.6529 25.1394
R_Clavicle  4.559 12.2581 16.0066
R_UpperArm  47.6261 -28.3976 88.5462
R_Forearm  13.0364 -30.9868 33.4104
R_Hand  -0.888774 6.00433 -17.5925
L_Clavicle  -1.92968 -12.95 9.14558
L_UpperArm  -38.9721 -7.713 76.6389
L_Forearm  3.28644 38.1285 60.8832
L_Hand  0.292542 -8.48409 -10.5175
L_Thigh  -3.83397 13.3634 -15.9276
L_Calf  9.3145 -3.79591 28.2349
L_Foot  -4.62334 -14.2028 -12.0118
L_Toe0  -8.21409 1.68396 7.8879
R_Thigh  -0.0346564 -26.2029 42.7674
R_Calf  -7.36268 10.8812 36.5544
R_Foot  4.32161 15.9076 -10.865
R_Toe0  -1.78849 -0.272787 -17.3235
857
root  -9.93872 26.4045 -10.6988 86.0488 -9.39494 108.072
Spine  -12.6836 -9.46792 12.1516
Spine1  -11.6462 47.6558 -3.42281
Neck  3.97569e-016 0 -2.38542e-015
Head  45.9543 -25.2496 22.6148
R_Clavicle  4.43134 9.44193 16.6771
R_UpperArm  49.0479 -26.8294 85.3243
R_Forearm  14.4702 -32.0203 34.281
R_Hand  -1.02127 6.33078 -18.8191
L_Clavicle  -1.48487 -12.0404 7.29207
L_UpperArm  -39.8152 -6.8873 79.3162
L_Forearm  3.71252 37.1592 60.3173
L_Hand  0.368016 -9.03012 -11.2576
L_Thigh  1.10516 11.5128 -10.251
L_Calf  6.92869 -2.90977 21.362
L_Foot  -4.964 -20.0649 8.71901
L_Toe0  -1.10129 0.217404 8.22725
R_Thigh  -10.9904 -24.5801 48.827
R_Calf  -8.5252 10.0636 33.5043
R_Foot  3.70187 12.9532 -13.6317
R_Toe0  -1.78847 -0.272787 -17.3235
858
root  -9.00901 24.8445 -11.2201 88.5618 -12.2212 105.487
Spine  -10.1453 -7.31379 15.952
Spine1  -11.1015 46.9416 -6.46725
Neck  3.97569e-016 0 -2.38542e-015
Head  46.32 -23.5097 18.06
R_Clavicle  4.17946 6.57116 17.0308
R_UpperArm  51.6444 -21.5796 78.3018
R_Forearm  15.3161 -34.2502 35.3876
R_Hand  -1.14467 5.94697 -19.8572
L_Clavicle  -0.97108 -6.27097 6.60858
L_UpperArm  -39.0408 -3.34225 83.4657
L_Forearm  -0.278999 36.0637 60.454
L_Hand  0.389743 -9.12789 -11.6297
L_Thigh  6.30872 12.1714 -4.94897
L_Calf  5.38738 -2.07875 15.0317
L_Foot  -5.34436 -21.0612 27.7934
L_Toe0  0.546275 -0.000936063 -5.98875
R_Thigh  -19.5808 -23.0361 53.7012
R_Calf  -7.46138 8.86757 29.1
R_Foot  3.73906 13.4939 -17.0066
R_Toe0  -1.78844 -0.272786 -17.3235
859
root  -8.68166 23.8667 -11.5445 90.91 -15.0151 100.725
Spine  -5.97924 -3.80703 21.4904
Spine1  -9.40067 44.7082 -9.82832
Neck  3.97569e-016 0 -2.38542e-015
Head  48.2158 -21.4613 11.2151
R_Clavicle  3.21058 1.0999 15.7947
R_UpperArm  53.7889 -10.293 70.2611
R_Forearm  14.8598 -38.6147 38.1142
R_Hand  -1.24996 5.77409 -20.8175
L_Clavicle  -0.237317 2.13406 0.909046
L_UpperArm  -37.6284 0.880284 83.6138
L_Forearm  -8.55059 35.2054 61.6845
L_Hand  0.319816 -8.6527 -10.9249
L_Thigh  10.5014 16.1923 2.46147
L_Calf  9.48626 -0.857785 6.53143
L_Foot  -5.07494 -20.6832 35.3807
L_Toe0  0.516373 0.0351445 -6.24558
R_Thigh  -21.197 -22.0653 55.8051
R_Calf  -4.92573 8.3401 27.1772
R_Foot  4.32351 17.7458 -17.8583
R_Toe0  -1.78842 -0.272786 -17.3234
860
root  -9.02692 23.8176 -11.6887 94.4222 -20.7464 96.0005
Spine  -1.45081 0.493485 24.8495
Spine1  -7.33365 38.9364 -12.5448
Neck  3.97569e-016 0 -2.38542e-015
Head  49.3657 -18.7909 3.22345
R_Clavicle  1.68057 -7.95186 11.8494
R_UpperArm  56.9761 5.82244 61.5686
R_Forearm  10.2689 -42.7989 42.454
R_Hand  -1.37598 7.48576 -21.8433
L_Clavicle  -0.344082 10.4695 1.18682
L_UpperArm  -38.2547 0.384388 72.5004
L_Forearm  -14.6731 35.8771 64.1459
L_Hand  0.208832 -7.92606 -9.09363
L_Thigh  12.7225 19.9044 10.666
L_Calf  13.1629 -0.860068 6.22712
L_Foot  -4.22415 -19.4265 36.7995
L_Toe0  0.505156 0.0331261 -6.13611
R_Thigh  -21.0635 -21.2996 58.6104
R_Calf  -2.68765 8.14094 26.4602
R_Foot  4.79811 20.3774 -16.197
R_Toe0  -1.7884 -0.272786 -17.3234
861
root  -10.2316 24.554 -11.4052 100.144 -29.2545 91.3446
Spine  2.09254 5.32444 24.6638
Spine1  -4.98123 29.4449 -13.7927
Neck  3.97569e-016 0 -2.38542e-015
Head  47.3856 -16.7523 -4.6236
R_Clavicle  0.836569 -10.4032 5.93432
R_UpperArm  57.8291 18.7831 52.4404
R_Forearm  6.97507 -44.7133 44.221
R_Hand  -1.54943 9.48584 -22.96
L_Clavicle  -0.433736 15.3685 0.551504
L_UpperArm  -39.3407 -9.05396 53.0629
L_Forearm  -15.47 38.4784 66.3293
L_Hand  0.100454 -7.0855 -6.12181
L_Thigh  9.75382 23.7317 19.1419
L_Calf  19.7109 -1.62318 17.2919
L_Foot  -4.24739 -19.3202 30.4094
L_Toe0  0.505156 0.0320944 -6.13612
R_Thigh  -21.478 -20.6149 63.2938
R_Calf  -2.96892 7.79632 25.1905
R_Foot  5.06654 21.9345 -15.8865
R_Toe0  -1.78839 -0.272785 -17.3234
862
root  -11.9173 25.2027 -10.6009 108.275 -37.157 83.9415
Spine  4.31654 8.75824 24.03
Spine1  -3.08162 20.2612 -17.0211
Neck  3.97569e-016 0 -2.38542e-015
Head  43.4692 -15.9668 -10.0171
R_Clavicle  0.681596 -4.04081 3.82621
R_UpperArm  56.3892 28.3671 40.0933
R_Forearm  3.62494 -44.306 42.6535
R_Hand  -1.89958 9.65629 -25.3621
L_Clavicle  -0.618144 19.3733 -2.22706
L_UpperArm  -38.3769 -23.1132 34.7499
L_Forearm  -15.1711 40.3581 65.3803
L_Hand  0.0555204 -6.55385 -4.06757
L_Thigh  -3.84239 30.6818 23.0954
L_Calf  27.8293 -2.80217 38.2546
L_Foot  -6.37382 -23.3838 16.9
L_Toe0  0.505156 0.0310842 -6.13613
R_Thigh  -19.8884 -19.752 68.9743
R_Calf  -3.83402 6.59989 21.0092
R_Foot  5.07834 22.2164 -16.2522
R_Toe0  -1.78838 -0.272785 -17.3234
863
root  -13.5816 25.2716 -9.41985 117.016 -40.7987 74.0294
Spine  4.56905 8.9328 26.7308
Spine1  -2.70897 12.9819 -25.5963
Neck  3.97569e-016 0 -2.38542e-015
Head  39.9617 -13.7613 -11.4287
R_Clavicle  0.568815 6.00358 2.60228
R_UpperArm  52.4878 35.8869 29.5379
R_Forearm  3.21836 -40.9847 35.6758
R_Hand  -2.36536 9.0176 -28.922
L_Clavicle  -0.984766 22.3083 -5.90296
L_UpperArm  -37.2326 -33.8514 23.8724
L_Forearm  -14.2372 40.4614 65.3944
L_Hand  0.0803172 -6.99271 -4.78352
L_Thigh  -8.52872 38.6943 20.588
L_Calf  14.7739 -8.2731 55.2494
L_Foot  -6.66301 -24.3712 3.97974
L_Toe0  0.505156 0.0300953 -6.13614
R_Thigh  -15.0563 -18.2022 73.5906
R_Calf  -3.06831 4.25015 13.299
R_Foot  5.20968 21.6085 -13.6658
R_Toe0  -1.78837 -0.272785 -17.3234
864
root  -15.0607 24.8671 -7.92756 123.911 -39.7531 65.6619
Spine  1.84182 10.0523 30.7235
Spine1  -3.77129 1.38431 -33.3876
Neck  3.97569e-016 0 -2.38542e-015
Head  35.5692 -6.70004 -11.2299
R_Clavicle  0.270068 12.0196 1.67069
R_UpperArm  51.1362 43.7344 25.405
R_Forearm  4.72484 -35.4305 28.7692
R_Hand  -2.94806 8.17978 -33.6996
L_Clavicle  -0.65405 17.9947 -7.24333
L_UpperArm  -36.9352 -38.9909 17.4351
L_Forearm  -15.526 39.3311 66.4686
L_Hand  0.104528 -6.12384 -5.42843
L_Thigh  -7.92418 45.7498 19.0658
L_Calf  -2.89285 -5.94542 50.9423
L_Foot  -3.10001 -13.0559 2.24779
L_Toe0  0.505156 0.0291275 -6.13614
R_Thigh  -9.00641 -16.4423 75.6923
R_Calf  -2.57072 1.14871 3.56754
R_Foot  5.65042 21.1941 -7.78897
R_Toe0  -1.78838 -0.272785 -17.3234
865
root  -15.8085 23.739 -6.27677 128.231 -35.3993 60.4907
Spine  -2.57216 12.9516 30.5418
Spine1  -5.76195 -11.057 -33.4596
Neck  3.97569e-016 0 -2.38542e-015
Head  29.9745 2.84901 -13.3774
R_Clavicle  0.166037 17.7441 1.29623
R_UpperArm  56.0002 48.9463 30.6435
R_Forearm  8.36273 -31.1825 26.2505
R_Hand  -3.6115 7.20184 -40.047
L_Clavicle  0.256854 7.42064 -6.1033
L_UpperArm  -40.2391 -38.3875 14.8439
L_Forearm  -28.9994 34.2564 56.398
L_Hand  0.20427 -9.99831 -7.19869
L_Thigh  -8.49099 51.3993 9.47321
L_Calf  -14.5808 -2.54099 44.2306
L_Foot  -1.12167 -4.22166 -0.0520572
L_Toe0  0.505156 0.0281807 -6.13615
R_Thigh  -3.67104 -15.8016 75.21
R_Calf  -4.02265 -2.40382 -7.45272
R_Foot  6.42601 21.8733 -1.21368
R_Toe0  -1.78839 -0.272785 -17.3234
866
root  -15.8606 22.3669 -4.29146 130.596 -30.6707 57.1384
Spine  -8.31257 11.1595 26.5796
Spine1  -8.73899 -16.2698 -29.2872
Neck  3.97569e-016 0 -2.38542e-015
Head  26.2198 10.6978 -15.9832
R_Clavicle  1.92186 24.1659 6.03752
R_UpperArm  59.2405 45.713 39.8102
R_Forearm  12.0848 -28.3569 24.5101
R_Hand  -4.26651 8.19773 -43.5292
L_Clavicle  0.722189 -0.499804 -4.89043
L_UpperArm  -51.4194 -25.3413 24.5095
L_Forearm  -50.513 12.769 22.741
L_Hand  6.71808 -33.7538 -27.4333
L_Thigh  -7.37704 51.6702 -8.98688
L_Calf  -21.0557 -3.40788 38.5654
L_Foot  -1.16128 2.31694 -8.08263
L_Toe0  0.505156 0.0272546 -6.13616
R_Thigh  1.4275 -16.148 72.5189
R_Calf  -4.92502 -5.70945 -18.0034
R_Foot  7.66118 23.1247 6.26293
R_Toe0  -1.78841 -0.272786 -17.3234
867
root  -15.2602 21.1966 -2.07778 130.302 -26.4431 52.4624
Spine  -12.9984 5.72651 22.3679
Spine1  -11.0344 -16.1211 -28.7887
Neck  3.97569e-016 0 -2.38542e-015
Head  26.3085 17.3205 -14.3796
R_Clavicle  1.99398 23.8512 6.12469
R_UpperArm  53.1986 38.5349 48.3326
R_Forearm  14.2899 -23.7442 20.7198
R_Hand  -4.08356 8.93859 -41.3036
L_Clavicle  0.721199 -5.85415 -2.92187
L_UpperArm  -53.7527 -10.7039 24.5789
L_Forearm  -39.5986 -0.820051 10.8121
L_Hand  26.9059 -43.4301 -67.0597
L_Thigh  -6.52285 43.2028 -27.951
L_Calf  -19.1972 -4.38036 32.2779
L_Foot  -3.55348 -0.468154 -18.2605
L_Toe0  0.505156 0.0263492 -6.13617
R_Thigh  9.01554 -15.3073 67.5943
R_Calf  -6.20878 -7.92732 -25.4764
R_Foot  9.59166 24.5622 17.0001
R_Toe0  -1.7279 -0.284737 -17.472
